<?xml version="1.0" encoding="UTF-8"?>
<svg id="Layer_1" data-name="Layer 1" xmlns="http://www.w3.org/2000/svg" width="6427.07" height="4000" viewBox="0 0 6427.07 4000">
  <defs>
    <style>
      .cls-1 {
        fill: #fff;
      }

      .cls-2 {
        fill: #002173;
      }
    </style>
  </defs>
  <g>
    <path class="cls-2" d="m2228.3,1656.26l397.02,758.42-26.46,54.38h-12.08l-338.11-643.6c-50.28-96.79-104.3-152.01-162.1-165.62v-13.13l141.73,9.55Zm236.77,211.69l188.21,356.44,175.99-370.05c24.67-51.45,37.02-90.06,37.02-115.79,0-39.85-19.62-66.09-58.82-78.7v-13.13c-1.01,0,13.07,1.6,42.24,4.77,38.72,3.19,69.13,4.77,91.25,4.77,17.6,0,55.05-3.17,112.38-9.55v13.13c-33.2,14.12-60.09,33.01-80.69,56.69-21.13,24.19-48.53,72.06-82.21,143.62l-237.16,494.33-363.9-698.22c45.73,0,100.28-3.17,163.61-9.55v13.13c-29.17,8.08-43.73,26.24-43.73,54.49,0,30.77,18.59,81.98,55.82,153.61Z"/>
    <path class="cls-2" d="m2978.13,2176.92c-31.61,39.85-47.41,83.49-47.41,130.9,0,56,19.56,101.92,58.71,137.72-30.6-6.97-57.7-22.21-81.27-45.69-24.58-23.24-36.87-53.58-36.87-90.99,0-65.2,35.6-109.19,106.84-131.94Zm235.71-25.7v-79.97c0-36.2-7.35-64.62-22.04-85.25-15.14-20.1-44.4-30.17-87.78-30.17-67.6,0-124.61,25.4-171.01,76.18l-18.82-18.11c18.56-31.74,47.91-57.92,88.04-78.59,40.41-19.73,82.34-29.61,125.79-29.61,94.46,0,141.7,51.34,141.7,154.02v392.62c-23.16,1.04-42.54,4.23-58.13,9.55l2.26-39.41c-25.31,26.28-55.43,39.41-90.34,39.41-39.98,0-73.4-15.37-100.22-46.12-27.1-31.33-40.64-66.73-40.64-106.17,0-45.5,16.54-84.42,49.66-116.8,32.41-32.26,75.7-48.39,129.87-48.39,17.21,0,34.43,2.28,51.66,6.81Zm0,239.53v-197.94c-16.73-2.01-30.92-3.04-42.56-3.04-40.04,0-71.2,12.14-93.49,36.4-22.3,24.78-33.44,53.09-33.44,84.95,0,28.83,9.36,53.36,28.12,73.57,19.25,21.24,42.56,31.85,69.92,31.85,24.32,0,48.13-8.6,71.44-25.79Zm250.7,71.15l-145-9.55v-391.63c0-39.74-3.79-68.93-11.34-87.54-8.56-19.19-23.4-35.6-44.53-49.25,43.79,8.6,73.48,24.26,89.09,47,15.59,23.2,23.4,64.82,23.4,124.84v233.79c0,39.85,5.54,68.35,16.62,85.49,10.57,16.86,34.5,28.03,71.76,33.48v13.39Z"/>
    <path class="cls-2" d="m3558.94,1539.29v720.42c0,68.48,3.79,113.27,11.36,134.42,7.55,21.65,19.66,43.04,36.31,64.19-27.75-7.93-49.18-20.57-64.3-37.93-15.14-16.64-25.47-39.09-31.01-67.32-5.05-25.21-7.57-70.1-7.57-134.67v-506.83c0-45.9-1.77-76.91-5.28-93.06-4.03-18.15-13.09-34.28-27.19-48.41-14.1-14.1-32.49-23.18-55.15-27.23v-11.94c15.61,0,39.54,1.53,71.8,4.55,16.11,1.53,39.8,2.8,71.03,3.8Zm246.39,884.9l3.79,15.83c-23.68,18.56-50.13,27.84-79.33,27.84-41.31,0-71.78-15.81-91.42-47.48-19.67-31.22-29.5-84.37-29.5-159.45v-721.65c30.25-.95,51.7-2.14,64.3-3.58-5.56,86.12-8.32,148.07-8.32,185.86v506.16c0,61.95,1.51,104.27,4.53,126.93,3.02,23.18,12.33,41.81,27.96,55.91,15.11,15.14,36.25,22.7,63.44,22.7,14.58,0,29.45-3.02,44.55-9.06Z"/>
    <path class="cls-2" d="m3900.33,1959.42c-51.66,47.31-77.49,121.03-77.49,221.16s22.06,167.84,66.2,216.65c-41.64-17.64-73.25-47.41-94.81-89.25-22.08-42.86-33.1-85.47-33.1-127.84,0-33.27,6.27-65.55,18.82-96.83,12.03-31.03,26.58-55.05,43.64-72.08,17.55-17.51,43.14-34.78,76.74-51.81Zm446.83,319.22h29.84c-14.62,55.52-43.08,100.69-85.39,135.49-43.34,35.84-96.75,53.75-160.23,53.75-57.44,0-103.28-11.67-137.54-35-35.21-23.72-63.85-55.28-85.97-94.66-23.09-39.83-34.61-89.5-34.61-149.01,0-82.69,22.57-150.76,67.73-204.21,44.31-52.85,115.29-79.28,212.97-79.28,68.46,0,136.44,12.1,203.91,36.29,0,5.04-.52,12.1-1.53,21.17-.52,5.56-.76,10.09-.76,13.6,0,17.14,1.27,40.08,3.82,68.8,1.53,17.14,2.29,28.98,2.29,35.51,0,8.58-1.29,21.67-3.82,39.31h-15.98c-12.08-55.46-36.76-98.08-73.98-127.84-36.76-29.24-80.81-43.86-132.13-43.86-58.39,0-106.45,19.67-144.2,58.99-38.27,38.83-57.38,93.81-57.38,164.9s17.1,127.58,51.34,173.96c33.72,45.9,83.53,68.83,149.47,68.83,91.1,0,161.82-45.56,212.15-136.72Z"/>
    <path class="cls-2" d="m4451.03,1662.23l105.95,99.34-36.07,37.91-105.24-98.58,35.36-38.68Zm-29.32,601.98v-350.14h56.36v376.54c0,55.35,5.5,94.83,16.54,118.48,10.52,24.65,28.05,42.26,52.59,52.81h-23.29c-33.57-15.09-59.12-36.22-76.65-63.39-17.05-26.65-25.55-71.43-25.55-134.31Zm99.19-677.17l105.42,98.49-35.38,37.58-106.11-97.72,36.07-38.34Zm6.77,690.2v-363.17h56.36v374.59c0,91.64,31.96,137.44,95.93,137.44,20.63,0,37.5-4.03,50.6-12.08v16.56c-25.68,20.89-53.88,31.33-84.57,31.33-28.2,0-51.84-8.47-70.98-25.36-20.55-17.6-33.33-36.98-38.32-58.13-6.01-21.15-9.01-54.87-9.01-101.17Z"/>
    <path class="cls-2" d="m4817.1,1952.33c-46.88,51.77-70.33,128.18-70.33,229.18s23.44,178.43,70.33,232.2c-87.22-49.25-130.82-127.65-130.82-235.22s43.6-181.42,130.82-226.16Zm-18.89,236.71c0-97.57,19.86-170.27,59.58-218.06,40.21-48.28,95.52-72.43,165.9-72.43,65.35,0,119.41,21.37,162.15,64.08,42.73,42.73,64.1,113.35,64.1,211.85,0,108.05-22.86,183.45-68.59,226.16-46.25,43.23-99.51,64.84-159.82,64.84s-114.34-22.53-157.55-67.6c-43.86-44.72-65.78-114.34-65.78-208.83Zm63.52-12.05c0,91.98,14.06,154.3,42.18,186.96,28.12,32.67,68.03,49.01,119.76,49.01,48.71,0,88.12-17.08,118.25-51.27,29.61-34.17,44.44-96.49,44.44-186.98,0-152.29-54.23-228.43-162.69-228.43s-161.95,76.91-161.95,230.71Zm370.05,228.41c46.4-51.77,69.62-123.64,69.62-215.62,0-49.76-5.56-96.49-16.65-140.22-11.6-44.72-29.26-77.39-52.96-98,88.28,48.75,132.43,123.64,132.43,224.67s-44.14,173.4-132.43,229.18Z"/>
    <path class="cls-2" d="m5493.13,1914.06v538.29c-51.88,2.65-96.94,5.82-135.21,9.55v-13.13c22.64-7.57,41.53-21.22,56.64-40.95,15.11-19.71,22.66-66.99,22.66-141.83v-186.55c0-50.56-5.8-87.97-17.36-112.25-12.08-22.47-36.52-38.96-73.27-49.46v-12.03c23.67,3.04,72.51,5.82,146.54,8.35Zm53.63,538.29v-538.29c26.71-.95,46.85-2.14,60.46-3.58l-5.3,38.51c62.7-31.24,120.88-46.87,174.56-46.87,34.59,0,64.19,8.43,88.77,25.29,24.15,17.66,39.26,37.58,45.3,59.75,6.04,22.7,9.06,59.51,9.06,110.44v354.74c-20.63,1.04-40.77,2.65-60.39,4.77,3.51-63.11,5.28-107.27,5.28-132.52v-241.56c0-49.48-7.03-84.31-21.07-104.51-14.55-20.7-40.64-31.05-78.23-31.05-40.13,0-94.57,16.69-163.27,50.05v308.66c0,80.9,29.71,128.42,89.12,142.57v13.13c-60.44-6.38-108.54-9.55-144.29-9.55Zm425.7,0v-369.01c0-50.91-3.52-87.71-10.57-110.4-6.55-20.66-22.66-39.05-48.32-55.2,34.22,2.5,61.65,14.17,82.3,35.06,20.63,21.74,30.96,71.05,30.96,147.89v176.7c0,43.49,2.52,74.32,7.55,92.52,4.53,19.73,15.11,36.66,31.72,50.8,16.11,14.68,35.25,24.04,57.4,28.07v13.13c-16.62-1.6-44.18-3.58-82.69-5.97-38.53-2.39-61.3-3.58-68.35-3.58Z"/>
  </g>
  <path class="cls-2" d="m763.12,1597.03l477.66,911.73-31.79,65.38h-14.53l-406.83-772.79c-60.54-116.24-125.63-182.53-195.24-198.87v-16.35l170.72,10.9Zm285.14,255.18l226.11,427.72,211.59-444.06c29.65-61.75,44.49-108.06,44.49-138.94,0-47.82-23.61-79.3-70.83-94.44v-16.35c-1.22,0,15.74,1.52,50.85,4.54,46.61,4.24,83.23,6.36,109.88,6.36,21.18,0,66.29-3.63,135.3-10.9v16.35c-39.96,16.96-72.35,39.66-97.16,68.11-25.43,29.06-58.43,86.58-98.99,172.54l-285.14,593.9-437.7-839.99c55.09,0,120.78-3.63,197.06-10.9v16.35c-35.12,9.69-52.67,31.49-52.67,65.38,0,36.93,22.39,98.39,67.2,184.34Z"/>
  <path class="cls-1" d="m1234.43,1131.57c-199.9-13.49-386.59,40.56-539.53,141.58-11.37,7.51-15.27,22.38-8.97,34.46h0c7.16,13.75,24.65,18.25,37.58,9.69,115.05-76.08,250.46-123.86,396.3-133.4,489.98-32.07,899.08,373.9,870.7,864.11-18.78,324.32-226.53,597.94-514.78,712.4-14.65,5.82-21.08,22.99-13.8,36.97h0c6.17,11.84,20.29,17.06,32.7,12.14,339.71-134.64,574.5-476.92,547.82-870.26-29.36-432.74-375.25-778.5-808.01-807.69Zm-60.39,1686.29c-451.69,0-817.86-366.17-817.86-817.87,0-243.57,106.47-462.27,275.41-612.1,9.62-8.53,12.27-22.48,6.33-33.88l-.08-.16c-7.53-14.45-26.64-18.1-38.86-7.33-183.36,161.48-298.21,398.9-295.35,663.09,5.14,476.59,394.8,861.39,871.41,860.86,70.06-.08,138.17-8.43,203.43-24.14,16.62-4,25-22.64,17.1-37.8h0c-5.57-10.69-17.7-16.17-29.42-13.35-61.61,14.83-125.94,22.69-192.1,22.69Z"/>
</svg>